<svg xmlns="http://www.w3.org/2000/svg" width="1em" height="1em" viewBox="0 0 48 48">
	<path fill="none" stroke="currentColor" stroke-linecap="round" stroke-linejoin="round" d="M26.851 32.238c.49.638 1.106.876 1.962.876h1.184a1.996 1.996 0 0 0 1.996-1.996v-.008a1.996 1.996 0 0 0-1.996-1.996h-1.306a2 2 0 0 1-1.998-1.998c0-1.105.896-2.002 2.002-2.002h1.178c.856 0 1.47.238 1.961.877m-17.27 7.123v-8h2.618c1.481 0 2.682 1.203 2.682 2.687s-1.2 2.687-2.681 2.687h-2.62m2.62 0l2.619 2.624M8.888 29.114h2.6m-2.6 4v-8h4m26.224-7.563a2.65 2.65 0 0 0-5.3 0v2.7a2.65 2.65 0 0 0 5.3 0zM22.325 14.9v8h4m2.075-8.014v8h4m-15.981-4h2.608m1.392 4h-4v-8h4m1.121 14.228h2.607m1.393 4h-4v-8h4M8.888 14.9v8m5.3-8v8m-5.3-4.014h5.3m19.624 6.228v8m5.3-8v8m-5.3-4.015h5.3" />
	<path fill="none" stroke="currentColor" stroke-linecap="round" stroke-linejoin="round" d="M40.5 5.5h-33a2 2 0 0 0-2 2v33a2 2 0 0 0 2 2h33a2 2 0 0 0 2-2v-33a2 2 0 0 0-2-2" />
</svg>